<svg xmlns="http://www.w3.org/2000/svg" version="1.1" width="512" height="512" x="0" y="0" viewBox="0 0 512 512" style="enable-background:new 0 0 512 512" xml:space="preserve">
    <g>
        <path d="M189.123 504.5h-13.534c-6.523 0-11.811-5.288-11.811-11.811v-78.594c0-6.516-2.871-12.664-7.775-16.95-28.706-25.053-46.97-62.731-46.97-104.876 0-52.927 28.813-98.826 70.938-121.498M359.133 195.881c15.82 16.611 26.243 38.849 29.515 67.146 1.498 12.953-1.586 19.561-6.499 26.223-2.721 3.69-4.435 11.217-.563 16.833l19.023 28.096c4.998 7.376 1.713 17.466-6.656 20.501l-7.634 2.777a10.901 10.901 0 0 0-7.188 10.254v3.074c0 6.265.055 44.209-1.338 50.115-5.327 22.441-25.828 38.929-49.911 38.218l-15.48-.454h-.016l-20.751-.618c-8.025-.235-14.666 6.211-14.666 14.236v20.407c0 6.523-5.288 11.811-11.811 11.811H224.6M143.95 118.38l-30.77-10M186.75 59.47l-17.79-24.48M256 36.97V7.5M343.04 34.98l-17.79 24.49M398.83 108.38l-30.78 10" style="stroke-width:15;stroke-linecap:round;stroke-linejoin:round;stroke-miterlimit:10;" fill="none" stroke="#deac40" stroke-width="15" stroke-linecap="round" stroke-linejoin="round" stroke-miterlimit="10" data-original="#000000">
        </path>
        <path d="M188.805 112.06c-6.965 11.608-11.012 25.138-11.089 39.554-.112 20.728 7.838 39.592 20.893 53.654 11.31 12.184 18.667 27.508 21.79 43.837l.51 2.667h70.189l.537-2.81c3.191-16.684 11.207-31.955 22.572-44.579 12.484-13.865 20.084-32.211 20.084-52.338 0-43.096-34.822-78.059-77.865-78.287-15.779-.084-30.55 4.596-42.938 12.679" style="stroke-width:15;stroke-linecap:round;stroke-linejoin:round;stroke-miterlimit:10;" fill="none" stroke="#deac40" stroke-width="15" stroke-linecap="round" stroke-linejoin="round" stroke-miterlimit="10" data-original="#000000">
        </path>
        <path d="M291.097 251.771h-70.189v19.523c0 7.23 5.861 13.091 13.091 13.091h44.007c7.23 0 13.091-5.861 13.091-13.091v-19.523zM256.003 314.385h0c-11.312 0-20.483-9.171-20.483-20.483v-9.517h40.966v9.517c0 11.312-9.171 20.483-20.483 20.483z" style="stroke-width:15;stroke-linecap:round;stroke-linejoin:round;stroke-miterlimit:10;" fill="none" stroke="#deac40" stroke-width="15" stroke-linecap="round" stroke-linejoin="round" stroke-miterlimit="10" data-original="#000000">
        </path>
        <path d="m246.52 251.771-22.871-92.365h64.708l-22.871 92.365M156.003 397.145s13.411 11.95 31.712 19.169" style="stroke-width:15;stroke-linecap:round;stroke-linejoin:round;stroke-miterlimit:10;" fill="none" stroke="#deac40" stroke-width="15" stroke-linecap="round" stroke-linejoin="round" stroke-miterlimit="10" data-original="#000000">
        </path>
    </g>
</svg>